<svg xmlns="http://www.w3.org/2000/svg" viewBox="0 0 318.6 318.6">
  <style>
    .st1,.st2,.st3,.st4,.st5,.st6,.st9{fill:#e4761b;stroke:#e4761b;stroke-linecap:round;stroke-linejoin:round}.st2,.st3,.st4,.st5,.st6,.st9{fill:#d7c1b3;stroke:#d7c1b3}.st3,.st4,.st5,.st6,.st9{fill:#233447;stroke:#233447}.st4,.st5,.st6,.st9{fill:#cd6116;stroke:#cd6116}.st5,.st6,.st9{fill:#e4751f;stroke:#e4751f}.st6,.st9{fill:#f6851b;stroke:#f6851b}.st9{fill:#763d16;stroke:#763d16}
  </style>
  <path fill="#fff" d="M274.1 35.5l-99.5 73.9L193 65.8z"/>
  <path class="st1" d="M44.4 35.5l98.7 74.6-17.5-44.3zm193.9 171.3l-26.5 40.6 56.7 15.6 16.3-55.3zm-204.4.9l16.2 55.3 56.7-15.6-26.5-40.6z"/>
  <path class="st1" d="M143.1 195.5l-23.9 35.7 42.7 1.2-2.4-43.5zm43.1.1l-2.8 43.6 42.8-1.3-23.9-35.7z"/>
  <path class="st1" d="M184.9 247.8l-41-1.2 2.9 28.3-3.2 9.5 30.7-7.1 14.3-18.3z"/>
  <path class="st1" d="M144 247.8l13.9 11.2-13.2 18.3 30.7 7.1-3.3-9.5 2.5-28.3z"/>
  <path class="st3" d="M161.5 175.1l-4.9 11.8 34.8-.8 3.5-11.8z"/>
  <path class="st9" d="M89.1 98l48.8 5.7 14-28.5-17.4-12.3zm140.4 0l-45.5-35.1-17.4 12.3 14 28.5z"/>
  <path class="st6" d="M143.1 195.5l25-21.8-21.9-17zm43.1 0l-3.3-38.9-21.7 17z"/>
  <path class="st5" d="M166.3 173.7l-21.9-17 17.6-8.9zm-3.4 0l4.3-25.9 17.6 8.9z"/>
  <path class="st3" d="M137.9 103.7l-4.9 54.2 13.6-41.2zm46.7 12.9l13.6 41.2-4.9-54.2zm-23.5-16.9l-14 28.5 17.5 52.5 4-81zm-20.3 0l-7.5 0 3.9 81 17.6-52.5z"/>
  <path class="st4" d="M171.3 103.7l-17.5 13 13.2 2.2 26.3-5.9zm-47.5 0l27.9 9.3 13.4-2.2-17.7-13z"/>
  <path class="st2" d="M174.3 259l3.3-9.5-2.9-2.5h-30.7l-2.6 2.5 3.2 9.5-14.3-11.2 10 8.2 10.4 7.2h16.3l10.5-7.2 10-8.2z"/>
  <path class="st1" d="M161 247.8l-2.9-28.3-9.6-7.9h36.9l-9.5 7.9-2.8 28.3-3.3 9.2-.3 22.8h-7.7l-.2-22.8z"/>
</svg> 