<svg viewBox="0 0 30 30" fill="none" xmlns="http://www.w3.org/2000/svg">
  <circle cx="15" cy="15" r="15" fill="#E6007A"/>
  <path fill-rule="evenodd" clip-rule="evenodd" d="M15.9125 5.4375C15.9125 6.5 15.05 7.3625 14 7.3625C12.95 7.3625 12.075 6.5 12.075 5.4375C12.075 4.3875 12.95 3.525 14 3.525C15.05 3.525 15.9125 4.3875 15.9125 5.4375ZM14 8.75C16.3125 8.75 18.1875 6.875 18.1875 4.5625C18.1875 2.25 16.3125 0.375 14 0.375C11.6875 0.375 9.8125 2.25 9.8125 4.5625C9.8125 6.875 11.6875 8.75 14 8.75ZM25.625 14C25.625 15.0625 24.7625 15.925 23.7125 15.925C22.65 15.925 21.7875 15.0625 21.7875 14C21.7875 12.95 22.65 12.0875 23.7125 12.0875C24.7625 12.0875 25.625 12.95 25.625 14ZM23.7125 17.35C26.025 17.35 27.9 15.4625 27.9 13.15C27.9 10.8375 26.025 8.95 23.7125 8.95C21.4 8.95 19.525 10.8375 19.525 13.15C19.525 15.4625 21.4 17.35 23.7125 17.35ZM15.9125 22.5625C15.9125 23.625 15.05 24.4875 14 24.4875C12.95 24.4875 12.075 23.625 12.075 22.5625C12.075 21.5125 12.95 20.65 14 20.65C15.05 20.65 15.9125 21.5125 15.9125 22.5625ZM14 25.875C16.3125 25.875 18.1875 24 18.1875 21.6875C18.1875 19.375 16.3125 17.5 14 17.5C11.6875 17.5 9.8125 19.375 9.8125 21.6875C9.8125 24 11.6875 25.875 14 25.875ZM6.275 15.925C5.225 15.925 4.3625 15.0625 4.3625 14C4.3625 12.95 5.225 12.0875 6.275 12.0875C7.3375 12.0875 8.2 12.95 8.2 14C8.2 15.0625 7.3375 15.925 6.275 15.925ZM8.4625 13.15C8.4625 15.4625 6.5875 17.35 4.275 17.35C1.9625 17.35 0.0875 15.4625 0.0875 13.15C0.0875 10.8375 1.9625 8.95 4.275 8.95C6.5875 8.95 8.4625 10.8375 8.4625 13.15Z" fill="white"/>
</svg> 