<svg viewBox="0 0 32 19" fill="none" xmlns="http://www.w3.org/2000/svg">
  <path d="M7.09 9.538c4.924-4.924 12.912-4.924 17.836 0l.592.592c.247.247.247.647 0 .894l-2.027 2.027c-.123.123-.324.123-.447 0l-.815-.815c-3.436-3.437-9.007-3.437-12.444 0l-.872.871c-.123.124-.324.124-.447 0L6.44 11.08c-.247-.247-.247-.647 0-.894l.65-.649Z" fill="#3B99FC"/>
  <path d="m24.347 11.85 1.804 1.803c.247.247.247.647 0 .894l-8.126 8.125a.647.647 0 0 1-.914 0l-5.765-5.764a.162.162 0 0 0-.228 0l-5.766 5.764a.647.647 0 0 1-.913 0L.313 16.547c-.246-.247-.246-.647 0-.894l1.804-1.803c.251-.252.66-.252.914 0l5.765 5.764a.162.162 0 0 0 .228 0l5.765-5.764c.252-.252.66-.252.914 0l5.765 5.764a.162.162 0 0 0 .228 0l5.765-5.764c.252-.252.662-.252.914 0h-.028Z" fill="#3B99FC"/>
</svg> 