<svg width="100" height="100" viewBox="0 0 100 100" fill="none" xmlns="http://www.w3.org/2000/svg">
<path opacity="0.5" d="M8.33301 46.875C8.33301 34.7917 16.7288 25 27.083 25C37.4372 25 45.833 34.7917 45.833 46.875V83.3333H17.6372C12.4997 83.3333 8.33301 78.475 8.33301 72.4792V46.875Z" fill="white"/>
<path opacity="0.8" d="M45.833 46.875V83.3333H82.4705C87.5497 83.3333 91.6663 78.5292 91.6663 72.6042V46.875C91.6663 34.7917 83.2705 25 72.9163 25H27.083C37.4372 25 45.833 34.7917 45.833 46.875Z" fill="white"/>
<path d="M39.583 83.334V91.6673C39.583 92.4961 39.9122 93.291 40.4983 93.877C41.0844 94.4631 41.8792 94.7923 42.708 94.7923C43.5368 94.7923 44.3317 94.4631 44.9177 93.877C45.5038 93.291 45.833 92.4961 45.833 91.6673V83.334H39.583ZM62.4997 83.334H56.2497V91.6673C56.2497 92.4961 56.5789 93.291 57.165 93.877C57.751 94.4631 58.5459 94.7923 59.3747 94.7923C60.2035 94.7923 60.9983 94.4631 61.5844 93.877C62.1704 93.291 62.4997 92.4961 62.4997 91.6673V83.334Z" fill="white"/>
<path fill-rule="evenodd" clip-rule="evenodd" d="M17.708 66.6664C17.708 65.8376 18.0372 65.0428 18.6233 64.4567C19.2093 63.8707 20.0042 63.5414 20.833 63.5414H33.333C34.1618 63.5414 34.9567 63.8707 35.5427 64.4567C36.1288 65.0428 36.458 65.8376 36.458 66.6664C36.458 67.4952 36.1288 68.2901 35.5427 68.8762C34.9567 69.4622 34.1618 69.7914 33.333 69.7914H20.833C20.0042 69.7914 19.2093 69.4622 18.6233 68.8762C18.0372 68.2901 17.708 67.4952 17.708 66.6664ZM72.4372 27.4373L73.5038 27.2206C75.236 26.8748 77.0315 27.0413 78.6705 27.6998C81.5455 28.8539 84.6955 29.0664 87.6913 28.3164L87.9455 28.2539C90.1288 27.7081 91.6663 25.679 91.6663 23.3456V14.4706C91.6663 11.3956 88.8997 9.12895 86.0205 9.84978C84.3705 10.2665 82.6372 10.1456 81.0497 9.51228L80.7455 9.38728C78.1017 8.32575 75.2058 8.05788 72.4122 8.61645L70.5413 8.99145C68.2913 9.44145 66.6663 11.4915 66.6663 13.8664V42.8373C66.6663 44.4914 67.958 45.8331 69.5497 45.8331C69.9364 45.8261 70.3179 45.7428 70.6723 45.5882C71.0268 45.4336 71.3473 45.2105 71.6155 44.9319C71.8837 44.6532 72.0943 44.3244 72.2353 43.9643C72.3763 43.6042 72.4449 43.2198 72.4372 42.8331V27.4373Z" fill="white"/>
</svg>
